<svg width="501" height="488" viewBox="0 0 501 488" fill="none" xmlns="http://www.w3.org/2000/svg">
<g clip-path="url(#clip0_9_14)">
<path fill-rule="evenodd" clip-rule="evenodd" d="M249.754 0C111.646 0 0 111.833 0 250.186C0 360.779 71.5356 454.394 170.775 487.527C183.182 490.018 187.727 482.144 187.727 475.52C187.727 469.72 187.318 449.839 187.318 429.125C117.842 444.039 103.375 399.301 103.375 399.301C92.2096 370.306 75.6663 362.853 75.6663 362.853C52.9271 347.527 77.3227 347.527 77.3227 347.527C102.547 349.184 115.782 373.208 115.782 373.208C138.107 411.313 174.082 400.546 188.555 393.918C190.62 377.763 197.241 366.58 204.27 360.368C148.858 354.568 90.5583 333.03 90.5583 236.929C90.5583 209.591 100.476 187.224 116.191 169.829C113.712 163.617 105.026 137.931 118.676 103.553C118.676 103.553 139.764 96.9239 187.313 129.234C207.67 123.757 228.664 120.971 249.754 120.948C270.842 120.948 292.339 123.85 312.189 129.234C359.744 96.9239 380.832 103.553 380.832 103.553C394.481 137.931 385.79 163.617 383.311 169.829C399.44 187.224 408.949 209.591 408.949 236.929C408.949 333.03 350.649 354.151 294.823 360.368C303.923 368.237 311.775 383.146 311.775 406.758C311.775 440.308 311.366 467.235 311.366 475.515C311.366 482.144 315.916 490.018 328.319 487.532C427.557 454.389 499.093 360.779 499.093 250.186C499.502 111.833 387.447 0 249.754 0Z" fill="white"/>
</g>
<defs>
<clipPath id="clip0_9_14">
<rect width="501" height="488" fill="white"/>
</clipPath>
</defs>
</svg>
