<svg width="500" height="500" viewBox="0 0 500 500" fill="none" xmlns="http://www.w3.org/2000/svg">
<path d="M362.013 0H137.978C61.897 0 0 61.9 0 137.981V362.016C0 438.1 61.897 499.997 137.978 499.997H362.013C438.1 499.997 499.997 438.097 499.997 362.016V137.981C500 61.9 438.1 0 362.013 0ZM455.638 362.016C455.638 413.639 413.639 455.635 362.016 455.635H137.978C86.3583 455.638 44.3622 413.639 44.3622 362.016V137.981C44.3622 86.3613 86.3583 44.3622 137.978 44.3622H362.013C413.636 44.3622 455.635 86.3613 455.635 137.981V362.016H455.638Z" fill="white"/>
<path d="M249.999 121.168C178.957 121.168 121.162 178.963 121.162 250.004C121.162 321.043 178.957 378.835 249.999 378.835C321.04 378.835 378.835 321.043 378.835 250.004C378.835 178.963 321.04 121.168 249.999 121.168ZM249.999 334.47C203.421 334.47 165.524 296.579 165.524 250.001C165.524 203.421 203.418 165.527 249.999 165.527C296.579 165.527 334.473 203.421 334.473 250.001C334.473 296.579 296.576 334.47 249.999 334.47Z" fill="white"/>
<path d="M384.238 83.5518C375.691 83.5518 367.295 87.012 361.259 93.0748C355.193 99.1081 351.706 107.507 351.706 116.084C351.706 124.634 355.196 133.03 361.259 139.093C367.292 145.126 375.691 148.616 384.238 148.616C392.815 148.616 401.185 145.126 407.248 139.093C413.31 133.03 416.771 124.631 416.771 116.084C416.771 107.507 413.31 99.1081 407.248 93.0748C401.214 87.012 392.815 83.5518 384.238 83.5518Z" fill="white"/>
</svg>
