<svg width="534" height="534" viewBox="0 0 534 534" fill="none" xmlns="http://www.w3.org/2000/svg">
<path d="M491 0.332381H46C40.2643 0.0637141 34.5317 0.928722 29.1307 2.87839C23.7297 4.82806 18.7664 7.82371 14.5244 11.6937C10.2827 15.564 6.84568 20.233 4.41068 25.433C1.97568 30.6334 0.59001 36.2627 0.333344 41.999V488C0.669344 500.003 5.58867 511.427 14.081 519.917C22.5733 528.41 33.9947 533.33 46 533.667H491C502.67 533.147 513.673 528.073 521.65 519.537C529.627 511 533.94 499.68 533.667 488V41.999C533.763 36.4157 532.717 30.872 530.593 25.7074C528.47 20.543 525.313 15.8667 521.317 11.965C517.323 8.06371 512.573 5.01972 507.36 3.01939C502.147 1.01906 496.58 0.104714 491 0.332381ZM167 445H89.3333V207.333H167V445ZM130 171.332C124.58 171.521 119.18 170.587 114.139 168.589C109.097 166.591 104.523 163.572 100.704 159.722C96.8853 155.872 93.9037 151.273 91.947 146.216C89.99 141.158 89.1003 135.75 89.3333 130.332C89.0937 124.856 90.0013 119.39 91.9983 114.285C93.9953 109.179 97.0373 104.548 100.929 100.688C104.821 96.827 109.477 93.8227 114.598 91.8674C119.719 89.9117 125.192 89.0484 130.667 89.3324C136.086 89.1437 141.487 90.0774 146.528 92.0754C151.57 94.0734 156.144 97.0924 159.962 100.943C163.781 104.793 166.763 109.391 168.72 114.449C170.677 119.507 171.566 124.914 171.333 130.332C171.573 135.809 170.665 141.275 168.668 146.38C166.671 151.485 163.629 156.117 159.738 159.977C155.846 163.838 151.19 166.842 146.069 168.797C140.948 170.753 135.474 171.616 130 171.332ZM445 445H367V315C367 284 356 262.667 328.333 262.667C319.74 262.74 311.377 265.47 304.397 270.483C297.413 275.497 292.153 282.547 289.333 290.667C287.167 296.753 286.26 303.217 286.667 309.667V445H210V207.333H286.667V240.667C293.483 228.143 303.627 217.75 315.98 210.63C328.333 203.513 342.413 199.949 356.667 200.332C407 200.332 445 233.667 445 304.667V445Z" fill="white"/>
</svg>
