<svg width="169" height="127" viewBox="0 0 169 127" fill="none" xmlns="http://www.w3.org/2000/svg">
<path d="M67.2638 67L41 40.8392V59L67.2638 82.5V67Z" fill="#BEBEBE"/>
<path d="M107 64.3608L131.883 89.5C131.883 89.5 136.196 87.1564 141.352 82.5L117.45 59C113.16 64.3608 107 64.3608 107 64.3608Z" fill="#BEBEBE"/>
<path d="M41 127L101.398 101L77 76.698L67.2638 82.5L41 59V127Z" fill="white"/>
<path d="M127.5 127H169L131.883 89.5L107 64.3608L72 29H107C107 29 121.5 32.5 121.5 45C121.5 51.7418 119.742 56.136 117.45 59L141.352 82.5C149.24 75.3763 159.1 62.8394 158.5 45C157.391 12 121.5 0 121.5 0H0L41 40.8392L67.2638 67L77 76.698L101.398 101L127.5 127Z" fill="white"/>
</svg>
